# xmcd CD database file
#
# Track frame offsets:
#	150
#	26142
#	54042
#	87910
#	118545
#	146792
#	175870
#	198267
#
# Disc length: 3035 seconds
#
# Revision: 0
# Processed by: cddbd v1.5.2PL0 Copyright (c) Steve Scherf et al.
# Submitted via: CDex 1.70beta3
#
DISCID=650bd908
DTITLE=Zoot Sims - Party
DYEAR=1974
DGENRE=Jazz
TTITLE0=Fred
TTITLE1=Restless
TTITLE2=Caravan
TTITLE3=Dream Dancing
TTITLE4=Getting Sentimental Over You
TTITLE5=The Very Thought Of You
TTITLE6=Love Me
TTITLE7=Getting Sentimental Over You(alt take)
EXTD=YEAR: 1974
EXTT0=
EXTT1=
EXTT2=
EXTT3=
EXTT4=
EXTT5=
EXTT6=
EXTT7=
PLAYORDER=
